<svg xmlns="http://www.w3.org/2000/svg" width="32" height="46.38" viewBox="0 0 32 46.38">
  <defs>
    <style>
      .cls-1 {
        fill: #e6e2dd;
        fill-rule: evenodd;
      }
    </style>
  </defs>
  <path id="feathers" class="cls-1" d="M1871.62,1096.22a14.491,14.491,0,0,1-1.1-2.23,8.626,8.626,0,0,1,.01-2.45c-0.02-.07.19-1.39-2.79-4.23s-3.08-3.17-3.27-3.81a5.407,5.407,0,0,0,2.39,1.2s-6.92-4.82-6.4-6.67a2.678,2.678,0,0,0,1.95,1.37,8.991,8.991,0,0,1-3.27-8.6s8.11-.42,10.54,6.18a3.178,3.178,0,0,1,.62-1.17s3.96,2.36,7.1,11.7c0,0,2.04,5.65-.35,10.15a10.672,10.672,0,0,0-.94,2.62l-0.22,1.86a2.363,2.363,0,0,1-.98.3,6.433,6.433,0,0,1,.14-1.97C1875.22,1098.23,1873.37,1096.23,1871.62,1096.22Zm3.67,0.2c0.25-11.3-12.44-21.77-12.44-21.77,2.42,3.7,10.38,8.96,12.44,21.77h0Zm0,0,11.84,15.98a14.089,14.089,0,0,0,.34-2.11,6.644,6.644,0,0,0-.55-1.7c-0.01-.06-0.45-0.92.99-3.57s1.43-2.89,1.42-3.38a3.938,3.938,0,0,1-1.4,1.37s3.74-4.91,2.96-6.07a1.955,1.955,0,0,1-1.04,1.39,6.582,6.582,0,0,0,.35-6.71s-5.74,1.52-5.95,6.66a2.328,2.328,0,0,0-.7-0.68s-2.22,2.53-2.32,9.73c0,0-.15,4.38,2.52,6.98a10.9,10.9,0,0,1,.93,1.14c0.13,0.25.88,1.71,0.88,1.71a1.727,1.727,0,0,0,.75-0.01,3.967,3.967,0,0,0-.54-1.34C1885.35,1114.87,1885.84,1112.52,1887.13,1112.4Zm-2.43.65c-2.7-7.81,3.77-17.93,3.77-17.93-0.85,3.12-5.21,8.56-3.77,17.93h0Zm0,0" transform="translate(-1859 -1070.81)"/>
</svg>
